<svg width="106" height="112" viewBox="0 0 106 112" fill="none" xmlns="http://www.w3.org/2000/svg">
<path d="M33.1156 46.1584L16.5748 36.542L0.0120239 46.1584V65.3475L16.5748 74.9421L33.1156 65.3475V46.1584ZM29.5539 63.2837L16.5748 70.7925L3.59555 63.2837V48.2223L16.5748 40.6916L29.5539 48.2223V63.2837Z" fill="#94539E"/>
<path d="M89.3808 36.542L72.8398 46.1584V65.3475L89.3808 74.9421L105.943 65.3475V46.1584L89.3808 36.542ZM102.36 63.2837L89.3808 70.7925L76.4015 63.2837V48.2223L89.3808 40.6916L102.36 48.2223V63.2837Z" fill="#FCA93E"/>
<path d="M18.55 77.9379V97.1271L35.1345 106.722L51.6536 97.1271V77.9379L35.1345 68.3214L18.55 77.9379ZM48.0312 95.1291L35.1345 102.572L22.0415 95.1291V80.0017L35.1345 72.471L48.0748 80.0017L48.0312 95.1291Z" fill="#12C0EE"/>
<path d="M54.3019 77.9379V97.1271L70.8427 106.722L87.4054 97.1271V77.9379L70.8427 68.3214L54.3019 77.9379ZM83.8219 95.1291L70.8427 102.638L57.8854 95.1291V80.0017L70.8427 72.471L83.8219 80.0017V95.1291Z" fill="#03D987"/>
<path d="M51.6536 33.5681V14.3132L35.1565 4.76257L18.55 14.3132V33.5023L35.1565 43.1627L51.6536 33.5681ZM22.0462 16.5088L35.1565 8.91217L48.0702 16.5088V31.5702L35.1565 39.0131L22.0462 31.5043V16.5088Z" fill="#D9ED23"/>
<path d="M11.4936 49.5679L11.486 54.1817L24.0343 54.2025L24.0291 57.306L11.4808 57.2852L11.4733 61.8369L8.9595 61.8328L8.97981 49.5638L11.4936 49.5679Z" fill="#94539E"/>
<path d="M94.5465 61.8701L94.5459 57.2563L81.9976 57.258L81.9971 54.1546L94.5454 54.1528L94.5448 49.6011L97.0586 49.6007L97.0603 61.8697L94.5465 61.8701Z" fill="#F2994A"/>
<path d="M75.8777 93.4656L68.3092 80.4431L70.9924 78.8836L78.5609 91.9061L75.8777 93.4656ZM67.4569 90.9173L66.2405 88.8244L72.1615 85.3832L73.3778 87.4761L67.4569 90.9173ZM70.0641 96.8444L68.8425 94.7425L75.3895 90.9375L76.6111 93.0393L70.0641 96.8444Z" fill="#03D987"/>
<path d="M34.6375 96.0886L36.7636 84.6962L27.9591 92.2213L24.4319 90.1789L31.9797 77.1444L34.6744 78.7048L32.6112 82.2678L28.7812 88.2624L37.924 80.5865L39.7682 81.6544L37.6581 93.3908L40.9457 87.094L43.0089 83.531L45.6946 85.0862L38.1468 98.1207L34.6375 96.0886Z" fill="#12C0EE"/>
<path d="M39.7318 22.7271L34.5769 25.7157L37.664 31.0407L34.9791 32.5973L27.4247 19.5666L35.9089 14.6479L37.1697 16.8227L31.3704 20.1848L33.3212 23.5499L38.4762 20.5613L39.7318 22.7271Z" fill="#D9ED23"/>
<path d="M71.4186 23.3047L77.5246 18.9925L80.4638 20.688L71.3836 26.5329L68.6544 31.2643L65.9213 29.6877L68.6506 24.9564L69.164 14.1699L72.1122 15.8705L71.4186 23.3047Z" fill="#EB5757"/>
<path d="M87.4054 33.634V14.379L70.8427 4.76257L54.3019 14.379V33.5681L70.8427 43.1627L87.4054 33.634ZM57.8854 16.5746L70.8427 9.04392L83.8219 16.5746V31.636L70.8427 39.1449L57.8854 31.636V16.5746Z" fill="#EF5767"/>
<path d="M52.9876 43.4757L58.0483 46.3981L60.6143 44.9207L52.9876 40.5144L40.2482 47.8755L42.8013 49.3529L52.9876 43.4757Z" fill="#03D987"/>
<path d="M63.1675 46.3981L52.9877 52.2753L47.9269 49.3529L45.3674 50.8303L52.9877 55.2301L65.7335 47.8755L63.1675 46.3981Z" fill="#D9ED23"/>
<path d="M42.2959 56.2864L39.7363 54.809V63.6086L52.4757 70.9697V68.0149L42.2959 62.1312V56.2864Z" fill="#EF5767"/>
<path d="M39.7363 51.854L49.9161 57.7312V63.576L52.4757 65.0599V56.2538L39.7363 48.8992V51.854Z" fill="#12C0EE"/>
<path d="M61.1263 54.8089V51.8541L53.4995 56.2539V70.9696L56.059 69.4922V57.7313L61.1263 54.8089Z" fill="#FCA93E"/>
<path d="M63.6793 50.3766V62.131L58.6186 65.0599V68.0147L66.2454 63.6084V48.8992L63.6793 50.3766Z" fill="#94539E"/>
</svg>
